<svg id="Capa_1" enable-background="new 0 0 512 512" height="512" viewBox="0 0 512 512" width="512" xmlns="http://www.w3.org/2000/svg" xmlns:xlink="http://www.w3.org/1999/xlink"><linearGradient id="SVGID_1_" gradientUnits="userSpaceOnUse" x1="256" x2="256" y1="512" y2="0"><stop offset="0" stop-color="#ffc2cc"/><stop offset="1" stop-color="#fff2f4"/></linearGradient><linearGradient id="SVGID_2_" gradientUnits="userSpaceOnUse" x1="256" x2="256" y1="389" y2="123"><stop offset="0" stop-color="#ffa68d"/><stop offset="1" stop-color="#fd3a84"/></linearGradient><g><g><circle cx="256" cy="256" fill="url(#SVGID_1_)" r="256"/></g><g><g><path d="m113.882 211.667c-4.975 0-8.882 3.901-8.882 8.867 0 4.965 3.908 8.867 8.882 8.867h28.246c-.711-5.852-1.244-11.705-1.244-17.733h-27.002zm284.236 0h-27.003c0 6.029-.532 11.881-1.244 17.733h28.246c4.975 0 8.882-3.902 8.882-8.867.001-4.966-3.907-8.866-8.881-8.866zm-79.941 44.333c0 4.901-3.973 8.867-8.882 8.867h-106.589c-4.909 0-8.882-3.966-8.882-8.867v-26.6h-51.695c8.349 80.154 50.985 151.975 52.938 155.344 1.598 2.659 4.441 4.256 7.639 4.256 25.048 0 30.733-28.55 35.352-51.427 4.441-21.812 8.172-37.24 17.942-37.24s13.501 15.428 17.942 37.24c4.62 22.877 10.304 51.427 35.352 51.427 3.198 0 6.04-1.596 7.639-4.256 1.954-3.369 44.59-75.19 52.938-155.344h-51.695v26.6zm-106.589-8.867h88.823v-53.2h-88.823zm26.647-35.466h35.529c4.91 0 8.882 3.966 8.882 8.867s-3.973 8.867-8.882 8.867h-35.529c-4.91 0-8.882-3.966-8.882-8.867 0-4.902 3.973-8.867 8.882-8.867zm-44.412-26.6c0-4.901 3.973-8.867 8.882-8.867h106.588c4.909 0 8.882 3.966 8.882 8.867v26.6h52.938c.356-3.015.356-5.852.356-8.867 0-43.979-27.891-79.8-62.177-79.8-16.699 0-25.048 5.851-31.799 10.462-5.863 4.079-10.481 7.271-21.496 7.271s-15.633-3.192-21.496-7.271c-6.751-4.611-15.1-10.462-31.799-10.462-34.286 0-62.177 35.821-62.177 79.8 0 3.014 0 5.851.356 8.867h52.938v-26.6z" fill="url(#SVGID_2_)"/></g></g></g></svg>