<svg id="Capa_1" enable-background="new 0 0 512 512" height="512" viewBox="0 0 512 512" width="512" xmlns="http://www.w3.org/2000/svg" xmlns:xlink="http://www.w3.org/1999/xlink"><linearGradient id="SVGID_1_" gradientUnits="userSpaceOnUse" x1="256" x2="256" y1="512" y2="0"><stop offset="0" stop-color="#ffbef9"/><stop offset="1" stop-color="#fff1ff"/></linearGradient><linearGradient id="SVGID_2_" gradientUnits="userSpaceOnUse" x1="256" x2="256" y1="407" y2="105"><stop offset="0" stop-color="#ff81ff"/><stop offset="1" stop-color="#a93aff"/></linearGradient><g><g><circle cx="256" cy="256" fill="url(#SVGID_1_)" r="256"/></g><g><g><path d="m327.059 105c-44.15 0-79.941 35.791-79.941 79.941s35.791 79.941 79.941 79.941 79.941-35.79 79.941-79.941-35.791-79.941-79.941-79.941zm35.529 88.823h-35.53c-4.91 0-8.882-3.973-8.882-8.882v-35.529c0-4.91 3.973-8.882 8.882-8.882s8.882 3.973 8.882 8.882v26.647h26.647c4.909 0 8.882 3.973 8.882 8.882s-3.971 8.882-8.881 8.882zm-133.235-8.882c0-10.101 1.541-19.849 4.4-29.021-3.397 1.445-7.427 2.373-13.282 2.373-11.068 0-15.718-3.218-21.582-7.295-6.714-4.667-15.076-10.47-31.713-10.47-34.281 0-62.177 35.859-62.177 79.941 0 90.246 52.34 178.506 54.561 182.218 1.596 2.672 4.493 4.311 7.616 4.311 25.051 0 30.759-28.581 35.356-51.551 4.372-21.824 8.206-37.273 17.938-37.273s13.566 15.449 17.938 37.273c4.598 22.972 10.306 51.553 35.357 51.553 3.123 0 6.02-1.639 7.616-4.311 1.477-2.469 32.559-54.883 47.1-120.113-.478.006-.941.072-1.421.072-53.868-.001-97.707-43.832-97.707-97.707z" fill="url(#SVGID_2_)"/></g></g></g></svg>