<svg id="Capa_1" enable-background="new 0 0 512 512" height="512" viewBox="0 0 512 512" width="512" xmlns="http://www.w3.org/2000/svg" xmlns:xlink="http://www.w3.org/1999/xlink"><linearGradient id="SVGID_1_" gradientUnits="userSpaceOnUse" x1="256" x2="256" y1="512" y2="0"><stop offset="0" stop-color="#c3ffe8"/><stop offset=".9973" stop-color="#f0fff4"/></linearGradient><linearGradient id="SVGID_2_" gradientUnits="userSpaceOnUse" x1="256" x2="256" y1="407" y2="105"><stop offset="0" stop-color="#9cffac"/><stop offset="1" stop-color="#00b59c"/></linearGradient><g><g><circle cx="256" cy="256" fill="url(#SVGID_1_)" r="256"/></g><g><g><path d="m278.657 212.985c6.367-12.499 12.872-29.327 12.872-45.808 0-4.901-3.99-8.882-8.882-8.882-2.793 0-5.256 1.275-9.056 3.348-4.511 2.463-10.114 5.534-17.591 5.534s-13.081-3.071-17.591-5.534c-3.799-2.073-6.263-3.348-9.056-3.348-4.892 0-8.882 3.981-8.882 8.882 0 16.481 6.506 33.309 12.872 45.808 3.955-10.938 11.12-19.161 22.657-19.161s18.702 8.223 22.657 19.161zm-49.304 194.015h53.294v-53.294h-53.294zm115.47-302h-177.646c-4.91 0-8.882 3.973-8.882 8.882v293.118h53.294v-62.177c0-4.91 3.973-8.882 8.882-8.882h71.059c4.91 0 8.882 3.973 8.882 8.882v62.177h53.294v-293.118c0-4.909-3.973-8.882-8.883-8.882zm-106.588 213.176h-35.53c-4.909 0-8.882-3.973-8.882-8.882 0-4.91 3.973-8.882 8.882-8.882h35.53c4.91 0 8.882 3.973 8.882 8.882.001 4.91-3.972 8.882-8.882 8.882zm0-35.529h-35.53c-4.909 0-8.882-3.973-8.882-8.882 0-4.91 3.973-8.882 8.882-8.882h35.53c4.91 0 8.882 3.973 8.882 8.882.001 4.909-3.972 8.882-8.882 8.882zm17.765-71.059c-5.343 0-8.882 16.039-8.882 26.647 0 3.825-2.446 7.217-6.072 8.423-3.509 1.192-7.561.041-9.923-3.097-1.145-1.544-28.417-38.331-28.417-76.385 0-14.694 11.953-26.647 26.647-26.647 7.477 0 13.081 3.071 17.591 5.534 7.599 4.146 10.513 4.146 18.112 0 4.51-2.464 10.114-5.534 17.591-5.534 14.694 0 26.647 11.953 26.647 26.647 0 38.054-27.272 74.841-28.417 76.385-2.307 3.071-6.263 4.32-9.906 3.097-3.626-1.197-6.072-4.589-6.089-8.414-.034-10.869-3.504-26.656-8.882-26.656zm53.294 106.588h-35.53c-4.91 0-8.882-3.973-8.882-8.882 0-4.91 3.973-8.882 8.882-8.882h35.53c4.909 0 8.882 3.973 8.882 8.882.001 4.91-3.972 8.882-8.882 8.882zm0-35.529h-35.53c-4.91 0-8.882-3.973-8.882-8.882 0-4.91 3.973-8.882 8.882-8.882h35.53c4.909 0 8.882 3.973 8.882 8.882.001 4.909-3.972 8.882-8.882 8.882zm88.824-71.059h-26.647v195.412h26.647c4.91 0 8.882-3.973 8.882-8.882v-177.647c0-4.91-3.973-8.883-8.882-8.883zm-293.118 8.883v177.647c0 4.91 3.973 8.882 8.882 8.882h26.647v-195.412h-26.647c-4.909 0-8.882 3.973-8.882 8.883z" fill="url(#SVGID_2_)"/></g></g></g></svg>