<svg id="Capa_1" enable-background="new 0 0 512 512" height="512" viewBox="0 0 512 512" width="512" xmlns="http://www.w3.org/2000/svg" xmlns:xlink="http://www.w3.org/1999/xlink"><linearGradient id="SVGID_1_" gradientUnits="userSpaceOnUse" x1="256" x2="256" y1="512" y2="0"><stop offset="0" stop-color="#ffe59a"/><stop offset="1" stop-color="#ffffd5"/></linearGradient><linearGradient id="SVGID_2_" gradientUnits="userSpaceOnUse" x1="256" x2="256" y1="389.5" y2="122.5"><stop offset="0" stop-color="#ffde00"/><stop offset="1" stop-color="#fd5900"/></linearGradient><g><g><circle cx="256" cy="256" fill="url(#SVGID_1_)" r="256"/></g><g><g><path d="m229.856 282.683c3.869-.217 7.165-2.938 8.119-6.718 2.966-11.795 11.103-28.865 18.025-28.865s15.058 17.07 18.025 28.864c.98 3.882 4.464 6.727 8.622 6.727 3.678 0 7.009-2.277 8.31-5.762 1.11-2.972 27.219-73.338 27.219-127.729 0-14.723-11.953-26.7-26.647-26.7-11.346 0-18.25 3.138-23.802 5.658-4.146 1.877-7.147 3.242-11.727 3.242s-7.581-1.365-11.727-3.242c-5.551-2.521-12.456-5.658-23.802-5.658-14.694 0-26.647 11.977-26.647 26.7 0 54.391 26.109 124.756 27.219 127.729 1.353 3.633 4.476 6.032 8.813 5.754zm175.373 39.172c-8.843-11.803-25.539-14.189-37.317-5.346l-47.429 35.61c-1.544 1.156-3.4 1.782-5.326 1.782h-59.157c-4.91 0-8.882-3.981-8.882-8.9s3.973-8.9 8.882-8.9h44.412c9.812 0 17.765-7.97 17.765-17.8 0-9.831-7.953-17.8-17.765-17.8h-97.706c-1.371 0-2.741.322-3.973.939l-33.656 16.86h-51.195c-4.91 0-8.882 3.981-8.882 8.9v53.4c0 4.919 3.973 8.9 8.882 8.9h213.176c1.926 0 3.799-.626 5.326-1.782l71.059-53.4c1.891-1.417 3.14-3.52 3.47-5.858.329-2.338-.278-4.71-1.684-6.605z" fill="url(#SVGID_2_)"/></g></g></g></svg>