<svg id="Capa_1" enable-background="new 0 0 512 512" height="512" viewBox="0 0 512 512" width="512" xmlns="http://www.w3.org/2000/svg" xmlns:xlink="http://www.w3.org/1999/xlink"><linearGradient id="SVGID_1_" gradientUnits="userSpaceOnUse" x1="256" x2="256" y1="512" y2="0"><stop offset="0" stop-color="#addcff"/><stop offset=".5028" stop-color="#eaf6ff"/><stop offset="1" stop-color="#eaf6ff"/></linearGradient><linearGradient id="SVGID_2_" gradientUnits="userSpaceOnUse" x1="256" x2="256" y1="407" y2="105"><stop offset="0" stop-color="#00c0ff"/><stop offset="1" stop-color="#5558ff"/></linearGradient><g><g><circle cx="256" cy="256" fill="url(#SVGID_1_)" r="256"/></g><g><g><path d="m400.863 185.731c-5.057-6.15-12.504-9.672-20.437-9.672h-27.139v-44.412c0-14.694-11.933-26.647-26.602-26.647h-17.735c-4.901 0-8.867 3.973-8.867 8.882v62.177h-26.602c-4.901 0-8.867 3.973-8.867 8.882v88.824c0 4.91 3.966 8.882 8.867 8.882h96.294c12.695 0 23.675-8.995 26.083-21.347l10.634-53.294c0-.017 0-.035.017-.052 1.524-7.92-.537-16.021-5.646-22.223zm-153.985 88.034v-88.824c0-14.694 11.933-26.647 26.602-26.647h8.867v-16.699c-2.93-.541-5.868-1.066-8.867-1.066-16.609 0-24.957 5.803-31.659 10.47-5.854 4.077-10.495 7.295-21.545 7.295s-15.691-3.218-21.545-7.295c-6.703-4.667-15.05-10.47-31.659-10.47-34.223 0-62.072 35.859-62.072 79.941 0 90.246 52.252 178.506 54.469 182.218 1.593 2.672 4.486 4.311 7.603 4.311 25.009 0 30.707-28.581 35.296-51.551 4.364-21.824 8.192-37.273 17.908-37.273s13.544 15.449 17.908 37.273c4.59 22.969 10.288 51.551 35.296 51.551 3.117 0 5.992-1.639 7.603-4.311 1.244-2.067 27.022-45.461 42.668-102.277h-50.271c-14.669.001-26.602-11.952-26.602-26.646z" fill="url(#SVGID_2_)"/></g></g></g></svg>