<svg id="Capa_1" enable-background="new 0 0 512 512" height="512" viewBox="0 0 512 512" width="512" xmlns="http://www.w3.org/2000/svg" xmlns:xlink="http://www.w3.org/1999/xlink"><linearGradient id="SVGID_1_" gradientUnits="userSpaceOnUse" x1="256" x2="256" y1="512" y2="0"><stop offset="0" stop-color="#ffc2cc"/><stop offset="1" stop-color="#fff2f4"/></linearGradient><linearGradient id="SVGID_2_" gradientUnits="userSpaceOnUse" x1="256" x2="256" y1="407" y2="105"><stop offset="0" stop-color="#ffa68d"/><stop offset="1" stop-color="#fd3a84"/></linearGradient><g><g><circle cx="256" cy="256" fill="url(#SVGID_1_)" r="256"/></g><g><g><path d="m290.895 330.182c1.108-2.967 27.171-73.193 27.171-127.476 0-14.694-11.932-26.647-26.6-26.647-11.326 0-18.218 3.131-23.76 5.647-4.139 1.874-7.135 3.235-11.707 3.235s-7.568-1.362-11.707-3.235c-5.542-2.516-12.434-5.647-23.76-5.647-14.668 0-26.6 11.953-26.6 26.647 0 54.283 26.063 124.509 27.171 127.476 1.351 3.626 4.572 5.872 8.797 5.742 3.862-.217 7.152-2.932 8.105-6.705 2.961-11.771 11.083-28.807 17.993-28.807s15.032 17.036 17.993 28.807c.952 3.773 4.243 6.488 8.105 6.705 6.568.329 8.707-5.496 8.799-5.742zm-15.126-205.779 4.233-4.241c3.464-3.47 3.464-9.091 0-12.56-3.464-3.47-9.074-3.47-12.538 0l-17.722 17.754c-3.47 3.467-3.449 9.136 0 12.582l17.722 17.754c3.464 3.47 9.074 3.47 12.538 0s3.464-9.091 0-12.56l-.06-.06c52.099 11.075 91.324 57.486 91.324 112.928 0 50.727-33.856 96.24-82.328 110.691-4.693 1.396-7.36 6.341-5.975 11.042 1.376 4.647 6.27 7.388 11.031 5.976 55.937-16.671 95.006-69.184 95.006-127.709 0-66.724-49.258-121.983-113.231-131.597zm-31.233 231.905c-3.464-3.47-9.075-3.47-12.538 0-3.464 3.47-3.464 9.091 0 12.56l.06.06c-52.099-11.075-91.324-57.486-91.324-112.928 0-50.727 33.856-96.24 82.328-110.691 4.693-1.396 7.36-6.341 5.975-11.042s-6.252-7.39-11.031-5.977c-55.937 16.672-95.006 69.185-95.006 127.71 0 66.687 49.165 122.089 113.085 131.743l-4.087 4.094c-3.464 3.47-3.464 9.09 0 12.56 3.463 3.47 9.074 3.47 12.538 0l17.733-17.765c2.715-2.72 3.884-8.669 0-12.56z" fill="url(#SVGID_2_)"/></g></g></g></svg>