<svg id="Capa_1" enable-background="new 0 0 512 512" height="512" viewBox="0 0 512 512" width="512" xmlns="http://www.w3.org/2000/svg" xmlns:xlink="http://www.w3.org/1999/xlink"><linearGradient id="SVGID_1_" gradientUnits="userSpaceOnUse" x1="256" x2="256" y1="512" y2="0"><stop offset="0" stop-color="#addcff"/><stop offset=".5028" stop-color="#eaf6ff"/><stop offset="1" stop-color="#eaf6ff"/></linearGradient><linearGradient id="SVGID_2_" gradientUnits="userSpaceOnUse" x1="256" x2="256" y1="398" y2="114"><stop offset="0" stop-color="#00c0ff"/><stop offset="1" stop-color="#5558ff"/></linearGradient><g><g><circle cx="256" cy="256" fill="url(#SVGID_1_)" r="256"/></g><g><g><path d="m318.439 120.725c.044-.175.045-.182 0 0zm81.83 64.544-51.681-12.905-12.907-51.638c-.989-3.952-4.545-6.726-8.622-6.726s-7.633 2.773-8.622 6.734c.001-.004.001-.005.002-.009-.689 2.761-11.816 47.376-12.875 51.621l-51.715 12.922c-3.956.979-6.731 4.533-6.731 8.606s2.776 7.627 6.731 8.606l51.663 12.905 12.942 51.699c1.006 3.926 4.545 6.665 8.605 6.665h.035c4.06-.017 7.599-2.782 8.587-6.726l12.907-51.638 51.681-12.905c3.955-.979 6.731-4.533 6.731-8.606s-2.776-7.626-6.731-8.605zm-99.024 86.219-10.375-41.463-41.324-10.322c-11.884-2.938-20.193-13.564-20.193-25.828s8.31-22.89 20.228-25.836l41.341-10.331 5.138-20.645c-7.022-3.433-14.535-5.313-22.296-5.313-16.637 0-24.999 5.798-31.713 10.461-5.864 4.073-10.513 7.289-21.581 7.289s-15.718-3.215-21.582-7.289c-6.714-4.663-15.076-10.461-31.713-10.461-34.281 0-62.177 35.829-62.177 79.875 0 90.171 52.34 178.358 54.561 182.068 1.596 2.669 4.493 4.307 7.616 4.307 25.051 0 30.759-28.558 35.356-51.508 4.372-21.806 8.206-37.242 17.938-37.242s13.566 15.436 17.938 37.242c4.597 22.95 10.305 51.508 35.356 51.508 3.123 0 6.002-1.638 7.616-4.307 1.315-2.2 27.199-45.807 42.805-102.68-10.906-1.224-20.171-8.716-22.939-19.525z" fill="url(#SVGID_2_)"/></g></g></g></svg>